<svg
  xmlns="http://www.w3.org/2000/svg"
  width="94"
  height="70"
  fill="none"
  viewBox="0 0 94 70"
>
  <path
    fill="#C4C4C4"
    fillRule="evenodd"
    d="M65.5 40.124c4-2.31 4-8.083 0-10.393L47 19.051v-4.042c0-4.619 5-7.506 9-5.196L90.5 29.73c4 2.31 4 8.083 0 10.393L56 60.042c-4 2.31-9-.577-9-5.196v-4.041l18.5-10.681z"
    clipRule="evenodd"
  />
  <path
    fill="#2B2467"
    d="M61 29.804c4 2.31 4 8.083 0 10.392L26.5 60.115c-4 2.31-9-.578-9-5.196V15.08c0-4.618 5-7.505 9-5.196L61 29.804z"
  />
</svg>